<svg version="1" xmlns="http://www.w3.org/2000/svg" width="666.667" height="666.667" viewBox="0 0 500.000000 500.000000"><path d="M222 1.1c-46.2 5.2-92.3 24.5-129.1 54.1C41.7 96.4 8.2 157.7 1 223.5c-1.3 11.9-1.3 41.1.1 53.3 11.7 107.8 92 196.3 198 218.2 20.4 4.2 34.1 5.3 58.3 4.7 28.7-.7 48.2-4.1 74.1-13C404 461.9 461.9 404 486.7 331.5c9-26.3 12.3-45.4 13-75 .6-24.3-.7-39.3-5.2-60.1-17-78.5-72.3-145.2-146.5-176.7-21.4-9.1-48.3-16.2-71.2-18.6C265.6-.2 233-.1 222 1.1zm31.4 124.7c1.6.9 3.8 3 5 4.5 2.1 2.8 2.1 3 2.1 86v83.2l-2.3 8.5c-11 41.6-47.1 68-89.7 65.6-33.2-1.8-59.5-18.6-73.6-47.1-7.4-14.9-9.1-22.9-9.2-41-.1-17.6 1.9-27.6 8.2-41.1 7.1-15.1 15.7-25.4 28.5-33.9 18.2-12.1 39.3-16.1 61.1-11.6 15.4 3.2 26.9 9.4 38.8 21l6.7 6.5v-45.7c0-49.3-.1-48.5 5.3-53.6 4.6-4.3 13-4.8 19.1-1.3zm133.9-.2c6.8 3.6 9 14.5 4.1 20.4-3.7 4.4-6.8 5.6-15.6 6.3-9.7.8-17.4 3.7-23.1 8.7-9.4 8.4-13.9 19.1-14.1 34.4l-.1 9.1 19.5.5c16.5.4 20 .8 22.3 2.3 6.5 4.3 7.5 14.3 2 19.9-4.1 4-8.2 4.7-27.5 4.8H338v64.6c0 58.3-.2 64.9-1.7 68.1-2 4.3-6 6.9-12 7.8-5.8.9-12.9-2.5-15.8-7.5-1.9-3.4-2-5.4-2.3-68.1l-.3-64.6-9.2-.5c-14.1-.8-18.7-4.1-18.7-13.8 0-4.3.5-5.5 3.4-8.8l3.4-3.7 10.5-.3 10.4-.4.7-10.5c1.5-21.8 7.9-37.6 20.6-50.4 4.4-4.5 10.2-9.1 14-11.2 15.1-8.3 37.3-11.7 46.3-7.1z"/><path d="M161.2 226.5c-20.4 4.5-36.2 19.3-42.8 40.2-2.5 7.9-3 23.7-1 32.7 5.4 23.9 22.2 40.7 45.5 45.3 22 4.4 44.8-5.3 57.1-24.1 8.6-13.3 12.1-33.1 8.6-49.5-6.7-31.5-36.6-51.3-67.4-44.6z"/></svg>