<svg class="ldi-4v0l3e" width="192px"  height="192px"  xmlns="http://www.w3.org/2000/svg" xmlns:xlink="http://www.w3.org/1999/xlink" viewBox="0 0 100 100" preserveAspectRatio="xMidYMid" style="background: none;"><!--?xml version="1.0" encoding="utf-8"?--><!--Generator: Adobe Illustrator 21.0.0, SVG Export Plug-In . SVG Version: 6.00 Build 0)--><svg version="1.1" id="Layer_1" xmlns="http://www.w3.org/2000/svg" xmlns:xlink="http://www.w3.org/1999/xlink" x="0px" y="0px" viewBox="0 0 100 100" style="transform-origin: 50px 50px 0px;" xml:space="preserve"><g style="transform-origin: 50px 50px 0px;"><g style="transform-origin: 50px 50px 0px; transform: scale(1);"><g style="transform-origin: 50px 50px 0px;"><g><style type="text/css" class="ld ld-cycle" style="transform-origin: 50px 50px 0px; animation-duration: 1s; animation-delay: -1s; animation-direction: normal;">.st0{fill:#F4E6C8;} .st1{opacity:0.8;fill:#849B87;} .st2{fill:#D65A62;} .st3{fill:#E15C64;} .st4{fill:#F47E5F;} .st5{fill:#F7B26A;} .st6{fill:#FEE8A2;} .st7{fill:#ACBD81;} .st8{fill:#F5E169;} .st9{fill:#F0AF6B;} .st10{fill:#EA7C60;} .st11{fill:#A8B980;} .st12{fill:#829985;} .st13{fill:#798AAE;} .st14{fill:#8672A7;} .st15{fill:#CC5960;} .st16{fill:#E17A5F;} .st17{fill:#849B87;} .st18{opacity:0.8;fill:#E15C64;} .st19{opacity:0.8;fill:#F7B26A;} .st20{fill:#79A5B5;} .st21{opacity:0.8;fill:#79A5B4;} .st22{fill:#666766;}</style><g class="ld ld-cycle" style="transform-origin: 50px 50px 0px; animation-duration: 1s; animation-delay: -0.909091s; animation-direction: normal;"><path id="XMLID_2_" class="st2" d="M50,92.5c-5.7,0-11.3-1.1-16.5-3.3c-5.1-2.1-9.6-5.2-13.5-9.1c-3.5-3.5-3.5-9.2,0-12.7 c3.5-3.5,9.2-3.5,12.7,0c2.3,2.3,4.9,4,7.8,5.3c3,1.3,6.2,1.9,9.6,1.9s6.5-0.6,9.6-1.9c2.9-1.2,5.6-3,7.8-5.3c2.3-2.3,4-4.9,5.3-7.8 c1.3-3,1.9-6.2,1.9-9.6c0-3.3-0.6-6.5-1.9-9.6c-1.2-2.9-3-5.6-5.3-7.8c-2.3-2.3-4.9-4-7.8-5.3c-3-1.3-6.2-1.9-9.6-1.9 c-4.9,0-8.9-4-8.9-8.9s4-8.9,8.9-8.9c5.7,0,11.3,1.1,16.5,3.3c5.1,2.1,9.6,5.2,13.5,9.1c3.9,3.9,7,8.4,9.1,13.5 c2.2,5.2,3.3,10.8,3.3,16.5c0,5.7-1.1,11.3-3.3,16.5c-2.1,5.1-5.2,9.6-9.1,13.5c-3.9,3.9-8.4,7-13.5,9.1 C61.3,91.4,55.7,92.5,50,92.5z" fill="#3d5afe" style="fill: rgb(61, 90, 254);"></path></g><metadata xmlns:d="https://loading.io/stock/" class="ld ld-cycle" style="transform-origin: 50px 50px 0px; animation-duration: 1s; animation-delay: -0.818182s; animation-direction: normal;">
<d:name class="ld ld-cycle" style="transform-origin: 50px 50px 0px; animation-duration: 1s; animation-delay: -0.727273s; animation-direction: normal;">ring</d:name>
<d:tags class="ld ld-cycle" style="transform-origin: 50px 50px 0px; animation-duration: 1s; animation-delay: -0.636364s; animation-direction: normal;">circle,round,curve,rotate,c,ring,spinner</d:tags>
<d:license class="ld ld-cycle" style="transform-origin: 50px 50px 0px; animation-duration: 1s; animation-delay: -0.545455s; animation-direction: normal;">cc-by</d:license>
<d:slug class="ld ld-cycle" style="transform-origin: 50px 50px 0px; animation-duration: 1s; animation-delay: -0.454545s; animation-direction: normal;">4v0l3e</d:slug>
</metadata></g></g></g></g><style type="text/css" class="ld ld-cycle" style="transform-origin: 50px 50px 0px; animation-duration: 1s; animation-delay: -0.363636s; animation-direction: normal;">path,ellipse,circle,rect,polygon,polyline,line { stroke-width: 0; }@keyframes ld-cycle {
  0%, 50%, 100% {
    animation-timing-function: cubic-bezier(0.5, 0.5, 0.5, 0.5);
  }
  0% {
    -webkit-transform: rotate(0);
    transform: rotate(0);
  }
  50% {
    -webkit-transform: rotate(180deg);
    transform: rotate(180deg);
  }
  100% {
    -webkit-transform: rotate(360deg);
    transform: rotate(360deg);
  }
}
@-webkit-keyframes ld-cycle {
  0%, 50%, 100% {
    animation-timing-function: cubic-bezier(0.5, 0.5, 0.5, 0.5);
  }
  0% {
    -webkit-transform: rotate(0);
    transform: rotate(0);
  }
  50% {
    -webkit-transform: rotate(180deg);
    transform: rotate(180deg);
  }
  100% {
    -webkit-transform: rotate(360deg);
    transform: rotate(360deg);
  }
}
.ld.ld-cycle {
  -webkit-animation: ld-cycle 1s infinite linear;
  animation: ld-cycle 1s infinite linear;
}
</style></svg></svg>