<?xml version="1.0" encoding="utf-8"?>
<!-- Generator: Adobe Illustrator 22.0.1, SVG Export Plug-In . SVG Version: 6.00 Build 0)  -->
<svg version="1.1" xmlns="http://www.w3.org/2000/svg" xmlns:xlink="http://www.w3.org/1999/xlink" x="0px" y="0px"
	 viewBox="0 0 190 40" style="enable-background:new 0 0 190 40;" xml:space="preserve">
<style type="text/css">
	.st0{display:none;}
	.st1{display:inline;}
	.st2{fill:#3878F2;}
	.st3{fill:none;}
	.st4{fill:#FFFFFF;}
	.st5{fill:none;stroke:#FFFFFF;stroke-width:0.5;}
</style>
<g id="Layer_2" class="st0">
	<g class="st1">
		<rect class="st2" width="190" height="40"/>
		<rect class="st2" width="190" height="40"/>
		<rect class="st2" width="190" height="40"/>
	</g>
</g>
<g id="Layer_1" class="st0">
	<g class="st1">
		<rect x="-5.5" y="7.3" class="st3" width="200" height="25.3"/>
		<path class="st4" d="M24.1,7.7c0.3,0.3,0.4,0.7,0.4,1.2v14.6c0,1.7-0.4,3.2-1.2,4.5c-0.8,1.4-1.8,2.4-3.2,3.2
			c-1.3,0.8-2.8,1.2-4.5,1.2c-1.6,0-3.1-0.4-4.5-1.2c-1.4-0.8-2.4-1.8-3.2-3.2c-0.8-1.4-1.2-2.9-1.2-4.5s0.4-3.2,1.1-4.5
			c0.7-1.4,1.7-2.4,2.9-3.2s2.6-1.2,4.2-1.2c1.2,0,2.4,0.3,3.5,0.8c1.1,0.5,2,1.2,2.7,2.1V8.9c0-0.5,0.2-0.9,0.5-1.2
			c0.3-0.3,0.7-0.4,1.2-0.4C23.4,7.3,23.8,7.5,24.1,7.7z M18.6,28.8c0.9-0.5,1.5-1.2,2-2.2c0.5-0.9,0.7-1.9,0.7-3.1
			s-0.2-2.1-0.7-3.1c-0.5-0.9-1.2-1.6-2-2.1c-0.9-0.5-1.8-0.8-2.9-0.8c-1.1,0-2,0.3-2.9,0.8c-0.9,0.5-1.5,1.2-2,2.1
			c-0.5,0.9-0.8,1.9-0.8,3.1s0.3,2.2,0.8,3.1c0.5,0.9,1.2,1.6,2,2.2c0.9,0.5,1.8,0.8,2.9,0.8C16.8,29.5,17.7,29.3,18.6,28.8z"/>
		<path class="st4" d="M41.1,15.8c1.3,0.8,2.4,1.8,3.1,3.2c0.8,1.3,1.1,2.9,1.1,4.6c0,1.7-0.4,3.2-1.1,4.6c-0.7,1.3-1.8,2.4-3.1,3.2
			c-1.3,0.8-2.9,1.1-4.6,1.1c-1.7,0-3.2-0.4-4.6-1.1c-1.3-0.8-2.4-1.8-3.1-3.2c-0.7-1.3-1.1-2.9-1.1-4.6c0-1.7,0.4-3.3,1.1-4.6
			c0.7-1.3,1.8-2.4,3.1-3.2c1.3-0.8,2.9-1.1,4.6-1.1C38.3,14.7,39.8,15,41.1,15.8z M33.7,18.3c-0.9,0.5-1.5,1.2-2,2.1
			c-0.5,0.9-0.7,2-0.7,3.1s0.2,2.2,0.7,3.1c0.5,0.9,1.2,1.6,2,2.1c0.9,0.5,1.8,0.8,2.9,0.8s2.1-0.3,2.9-0.8c0.9-0.5,1.5-1.2,2-2.1
			c0.5-0.9,0.7-1.9,0.7-3.1s-0.2-2.2-0.7-3.1c-0.5-0.9-1.2-1.6-2-2.1c-0.9-0.5-1.8-0.8-2.9-0.8S34.5,17.8,33.7,18.3z"/>
		<path class="st4" d="M71.6,16.5c1.1,1.2,1.7,2.9,1.7,5.1v9.2c0,0.5-0.1,0.9-0.4,1.2c-0.3,0.3-0.7,0.5-1.2,0.5
			c-0.5,0-0.9-0.2-1.2-0.5c-0.3-0.3-0.5-0.7-0.5-1.2v-9.2c0-1.3-0.3-2.3-1-3c-0.7-0.7-1.5-1-2.6-1c-1.1,0-2,0.4-2.7,1.2
			s-1.1,1.7-1.1,2.9v9c0,0.5-0.1,0.9-0.4,1.2c-0.3,0.3-0.7,0.5-1.2,0.5c-0.5,0-0.9-0.2-1.2-0.5c-0.3-0.3-0.5-0.7-0.5-1.2v-9.2
			c0-1.3-0.3-2.3-1-3s-1.5-1-2.6-1c-1.1,0-2.1,0.4-2.8,1.2s-1.1,1.7-1.1,2.9v9c0,0.5-0.1,0.9-0.4,1.2c-0.3,0.3-0.7,0.5-1.2,0.5
			c-0.5,0-0.9-0.2-1.2-0.5c-0.3-0.3-0.5-0.7-0.5-1.2V16.5c0-0.5,0.2-0.9,0.5-1.2c0.3-0.3,0.7-0.4,1.2-0.4c0.5,0,0.9,0.1,1.2,0.4
			c0.3,0.3,0.5,0.7,0.5,1.1c0.6-0.6,1.2-1,2-1.3c0.8-0.3,1.6-0.5,2.5-0.5c1.1,0,2.1,0.2,2.9,0.7c0.9,0.4,1.6,1.1,2.1,1.9
			c0.6-0.8,1.4-1.4,2.4-1.9c1-0.4,2-0.7,3.2-0.7C68.9,14.6,70.4,15.2,71.6,16.5z"/>
		<path class="st4" d="M80.5,8.3c0.4,0.4,0.6,0.9,0.6,1.5c0,0.6-0.2,1.1-0.6,1.5s-0.9,0.6-1.5,0.6s-1.1-0.2-1.5-0.6
			c-0.4-0.4-0.6-0.9-0.6-1.5c0-0.6,0.2-1.1,0.6-1.5C78,7.9,78.5,7.7,79,7.7S80.1,7.9,80.5,8.3z M77.9,15.2c0.3-0.3,0.7-0.4,1.2-0.4
			c0.5,0,0.9,0.1,1.2,0.4c0.3,0.3,0.4,0.7,0.4,1.2v14.2c0,0.5-0.1,0.9-0.4,1.2c-0.3,0.3-0.7,0.5-1.2,0.5c-0.5,0-0.9-0.2-1.2-0.5
			c-0.3-0.3-0.5-0.7-0.5-1.2V16.4C77.4,15.9,77.6,15.5,77.9,15.2z"/>
		<path class="st4" d="M97.8,15.6c1.2,0.6,2.1,1.6,2.8,2.8c0.7,1.2,1,2.7,1,4.4v7.9c0,0.5-0.2,0.9-0.5,1.2c-0.3,0.3-0.7,0.5-1.2,0.5
			c-0.5,0-0.9-0.2-1.2-0.5c-0.3-0.3-0.5-0.7-0.5-1.2v-7.9c0-1.7-0.5-3-1.4-3.9c-0.9-0.9-2.2-1.3-3.7-1.3c-0.9,0-1.7,0.2-2.4,0.5
			C90,18.5,89.4,19,89,19.6c-0.4,0.6-0.6,1.3-0.6,2.1v9c0,0.5-0.1,0.9-0.4,1.2c-0.3,0.3-0.7,0.5-1.2,0.5c-0.5,0-0.9-0.2-1.2-0.5
			c-0.3-0.3-0.5-0.7-0.5-1.2V16.4c0-0.5,0.2-0.9,0.5-1.2c0.3-0.3,0.7-0.4,1.2-0.4c0.5,0,0.9,0.1,1.2,0.4c0.3,0.3,0.4,0.7,0.4,1.2
			v0.4c0.7-0.7,1.5-1.2,2.4-1.6c0.9-0.4,1.9-0.6,3-0.6C95.3,14.6,96.6,14.9,97.8,15.6z"/>
		<path class="st4" d="M108.8,8.3c0.4,0.4,0.6,0.9,0.6,1.5c0,0.6-0.2,1.1-0.6,1.5s-0.9,0.6-1.5,0.6s-1.1-0.2-1.5-0.6
			s-0.6-0.9-0.6-1.5c0-0.6,0.2-1.1,0.6-1.5s0.9-0.6,1.5-0.6S108.4,7.9,108.8,8.3z M106.1,15.2c0.3-0.3,0.7-0.4,1.2-0.4
			c0.5,0,0.9,0.1,1.2,0.4c0.3,0.3,0.4,0.7,0.4,1.2v14.2c0,0.5-0.1,0.9-0.4,1.2s-0.7,0.5-1.2,0.5c-0.5,0-0.9-0.2-1.2-0.5
			c-0.3-0.3-0.5-0.7-0.5-1.2V16.4C105.7,15.9,105.8,15.5,106.1,15.2z"/>
		<path class="st4" d="M127,30.9c0,0.5-0.2,0.9-0.6,1.2c-0.3,0.3-0.7,0.4-1,0.4c-0.5,0-0.9-0.2-1.2-0.6l-6.1-7.5l-1.6,1.4v4.9
			c0,0.5-0.1,0.8-0.4,1.1c-0.3,0.3-0.7,0.4-1.1,0.4c-0.5,0-0.8-0.1-1.1-0.4c-0.3-0.3-0.4-0.7-0.4-1.1V8.9c0-0.5,0.1-0.8,0.4-1.1
			c0.3-0.3,0.7-0.4,1.1-0.4c0.5,0,0.8,0.1,1.1,0.4s0.4,0.7,0.4,1.1v13l7.8-6.9c0.3-0.3,0.6-0.4,1-0.4c0.4,0,0.8,0.2,1.1,0.5
			c0.3,0.3,0.4,0.6,0.4,1c0,0.4-0.2,0.8-0.5,1.1l-5.9,5.2l6.2,7.6C126.9,30.2,127,30.6,127,30.9z"/>
		<path class="st4" d="M134.5,10.6c-0.7,1-1.1,2.4-1.1,4.2v0.7h4.2c0.3,0,0.5,0.1,0.6,0.2s0.2,0.4,0.2,0.6s-0.1,0.5-0.2,0.6
			s-0.4,0.2-0.6,0.2h-4.2v14.2c0,0.3-0.1,0.5-0.3,0.7c-0.2,0.2-0.4,0.3-0.7,0.3c-0.3,0-0.5-0.1-0.7-0.3s-0.3-0.4-0.3-0.7V17.2H129
			c-0.3,0-0.5-0.1-0.6-0.2s-0.2-0.4-0.2-0.6s0.1-0.5,0.2-0.6s0.4-0.2,0.6-0.2h2.5v-0.7c0-2.3,0.5-4.1,1.6-5.4c1.1-1.3,2.7-2,4.8-2
			c0.3,0,0.5,0.1,0.7,0.2c0.2,0.2,0.3,0.4,0.3,0.6s-0.1,0.5-0.3,0.6c-0.2,0.2-0.4,0.2-0.7,0.2C136.3,9,135.2,9.5,134.5,10.6z"/>
		<path class="st4" d="M150,15.7c0,0.1,0,0.2,0,0.3c-0.1,0.2-0.2,0.4-0.3,0.5c-0.1,0.1-0.3,0.1-0.6,0.1c-0.2,0-0.4,0-0.8-0.1
			c-0.3,0-0.6-0.1-0.8-0.1c-1.1,0-2,0.2-2.8,0.7c-0.8,0.4-1.5,1.1-2,1.9c-0.5,0.8-0.7,1.7-0.7,2.7v9.7c0,0.3-0.1,0.5-0.3,0.7
			s-0.4,0.3-0.7,0.3c-0.3,0-0.5-0.1-0.7-0.3c-0.2-0.2-0.3-0.4-0.3-0.7V15.7c0-0.3,0.1-0.5,0.3-0.7c0.2-0.2,0.4-0.3,0.7-0.3
			c0.3,0,0.5,0.1,0.7,0.3c0.2,0.2,0.3,0.4,0.3,0.7v2c0.6-1,1.4-1.7,2.4-2.3s2-0.8,3.1-0.8C149.2,14.6,150,14.9,150,15.7z"/>
		<path class="st4" d="M167.1,15.6c0,0.1,0,0.2-0.1,0.4l-10.8,23.3c-0.2,0.4-0.4,0.6-0.7,0.6c-0.1,0-0.3,0-0.4-0.1
			c-0.4-0.2-0.6-0.4-0.6-0.7c0-0.1,0-0.2,0.1-0.4l3.2-6.9c0,0-0.1-0.1-0.1-0.2l-7-15.4c-0.1-0.2-0.1-0.3-0.1-0.5
			c0-0.3,0.2-0.6,0.5-0.7c0.2-0.1,0.3-0.1,0.5-0.1c0.3,0,0.6,0.2,0.7,0.5l6.5,14.2l6.5-14.2c0.2-0.4,0.4-0.6,0.7-0.6
			c0.1,0,0.3,0,0.4,0.1C166.9,15,167.1,15.2,167.1,15.6z"/>
		<path class="st4" d="M179,15.4c1.1,0.5,2.1,1.3,2.9,2.4c0.1,0.2,0.2,0.4,0.2,0.5c0,0.3-0.1,0.5-0.4,0.7c-0.1,0.1-0.3,0.2-0.5,0.2
			c-0.3,0-0.5-0.1-0.7-0.4c-1.4-1.6-3.1-2.4-5.2-2.4c-1.2,0-2.3,0.3-3.3,0.9s-1.7,1.5-2.2,2.5c-0.5,1.1-0.8,2.3-0.8,3.7
			c0,1.3,0.3,2.6,0.9,3.6s1.4,1.9,2.4,2.6c1,0.6,2.2,0.9,3.5,0.9c1.9,0,3.4-0.5,4.5-1.6c0.2-0.2,0.4-0.3,0.7-0.3
			c0.2,0,0.4,0.1,0.6,0.2c0.2,0.2,0.3,0.4,0.3,0.7c0,0.2-0.1,0.4-0.3,0.6c-0.7,0.7-1.6,1.2-2.6,1.6c-1,0.4-2.1,0.6-3.2,0.6
			c-1.6,0-3.1-0.4-4.4-1.2c-1.3-0.8-2.4-1.8-3.1-3.2c-0.8-1.4-1.1-2.9-1.1-4.5c0-1.7,0.4-3.2,1.1-4.6c0.7-1.4,1.7-2.4,2.9-3.2
			c1.3-0.8,2.7-1.2,4.2-1.2C176.6,14.6,177.9,14.9,179,15.4z M179.4,7.2c0.2,0,0.4,0.1,0.6,0.2c0.1,0.2,0.2,0.4,0.2,0.6
			c0,0.3-0.2,0.6-0.5,0.9l-3.9,2.6c-0.1,0.1-0.3,0.1-0.5,0.1s-0.4,0-0.5-0.1L171,8.9c-0.3-0.2-0.5-0.5-0.5-0.9
			c0-0.3,0.1-0.5,0.2-0.6c0.2-0.2,0.4-0.2,0.6-0.2c0.3,0,0.5,0.1,0.8,0.3l3.3,2.2l3.3-2.2C178.9,7.3,179.1,7.2,179.4,7.2z"/>
	</g>
</g>
<g id="Layer_3_copy" class="st0">
	<g class="st1">
		<rect x="129.8" y="7.3" class="st3" width="60.2" height="25.3"/>
		<path class="st4" d="M137.2,10.6c-0.7,1-1.1,2.4-1.1,4.2v0.7h4.2c0.3,0,0.5,0.1,0.6,0.2c0.2,0.2,0.2,0.4,0.2,0.6s-0.1,0.5-0.2,0.6
			c-0.2,0.2-0.4,0.2-0.6,0.2h-4.2v14.2c0,0.3-0.1,0.5-0.3,0.7c-0.2,0.2-0.4,0.3-0.7,0.3c-0.3,0-0.5-0.1-0.7-0.3
			c-0.2-0.2-0.3-0.4-0.3-0.7V17.2h-2.5c-0.3,0-0.5-0.1-0.6-0.2c-0.2-0.2-0.2-0.4-0.2-0.6s0.1-0.5,0.2-0.6c0.2-0.2,0.4-0.2,0.6-0.2
			h2.5v-0.7c0-2.3,0.5-4.1,1.6-5.4c1.1-1.3,2.7-2,4.8-2c0.3,0,0.5,0.1,0.7,0.2c0.2,0.2,0.3,0.4,0.3,0.6s-0.1,0.5-0.3,0.6
			c-0.2,0.2-0.4,0.2-0.7,0.2C139,9,137.9,9.5,137.2,10.6z"/>
		<path class="st4" d="M152.6,15.7c0,0.1,0,0.2,0,0.3c-0.1,0.2-0.2,0.4-0.3,0.5c-0.1,0.1-0.3,0.1-0.6,0.1c-0.2,0-0.4,0-0.8-0.1
			c-0.3,0-0.6-0.1-0.8-0.1c-1.1,0-2,0.2-2.8,0.7c-0.8,0.4-1.5,1.1-2,1.9c-0.5,0.8-0.7,1.7-0.7,2.7v9.7c0,0.3-0.1,0.5-0.3,0.7
			s-0.4,0.3-0.7,0.3c-0.3,0-0.5-0.1-0.7-0.3c-0.2-0.2-0.3-0.4-0.3-0.7V15.7c0-0.3,0.1-0.5,0.3-0.7c0.2-0.2,0.4-0.3,0.7-0.3
			c0.3,0,0.5,0.1,0.7,0.3c0.2,0.2,0.3,0.4,0.3,0.7v2c0.6-1,1.4-1.7,2.4-2.3s2-0.8,3.1-0.8C151.8,14.6,152.6,14.9,152.6,15.7z"/>
		<path class="st4" d="M169.7,15.6c0,0.1,0,0.2-0.1,0.4l-10.8,23.3c-0.2,0.4-0.4,0.6-0.7,0.6c-0.1,0-0.3,0-0.4-0.1
			c-0.4-0.2-0.6-0.4-0.6-0.7c0-0.1,0-0.2,0.1-0.4l3.2-6.9c0,0-0.1-0.1-0.1-0.2l-7-15.4c-0.1-0.2-0.1-0.3-0.1-0.5
			c0-0.3,0.2-0.6,0.5-0.7c0.2-0.1,0.3-0.1,0.5-0.1c0.3,0,0.6,0.2,0.7,0.5l6.5,14.2l6.5-14.2c0.2-0.4,0.4-0.6,0.7-0.6
			c0.1,0,0.3,0,0.4,0.1C169.5,15,169.7,15.2,169.7,15.6z"/>
		<path class="st4" d="M181.7,15.4c1.1,0.5,2.1,1.3,2.9,2.4c0.1,0.2,0.2,0.4,0.2,0.5c0,0.3-0.1,0.5-0.4,0.7
			c-0.1,0.1-0.3,0.2-0.5,0.2c-0.3,0-0.5-0.1-0.7-0.4c-1.4-1.6-3.1-2.4-5.2-2.4c-1.2,0-2.3,0.3-3.3,0.9s-1.7,1.5-2.2,2.5
			c-0.5,1.1-0.8,2.3-0.8,3.7c0,1.3,0.3,2.6,0.9,3.6c0.6,1.1,1.4,1.9,2.4,2.6c1,0.6,2.2,0.9,3.5,0.9c1.9,0,3.4-0.5,4.5-1.6
			c0.2-0.2,0.4-0.3,0.7-0.3c0.2,0,0.4,0.1,0.6,0.2c0.2,0.2,0.3,0.4,0.3,0.7c0,0.2-0.1,0.4-0.3,0.6c-0.7,0.7-1.6,1.2-2.6,1.6
			c-1,0.4-2.1,0.6-3.2,0.6c-1.6,0-3.1-0.4-4.4-1.2c-1.3-0.8-2.4-1.8-3.1-3.2c-0.8-1.4-1.1-2.9-1.1-4.5c0-1.7,0.4-3.2,1.1-4.6
			c0.7-1.4,1.7-2.4,2.9-3.2c1.3-0.8,2.7-1.2,4.2-1.2C179.3,14.6,180.6,14.9,181.7,15.4z M182.1,7.2c0.2,0,0.4,0.1,0.6,0.2
			c0.1,0.2,0.2,0.4,0.2,0.6c0,0.3-0.2,0.6-0.5,0.9l-3.9,2.6c-0.1,0.1-0.3,0.1-0.5,0.1c-0.2,0-0.4,0-0.5-0.1l-3.9-2.6
			c-0.3-0.2-0.5-0.5-0.5-0.9c0-0.3,0.1-0.5,0.2-0.6c0.2-0.2,0.4-0.2,0.6-0.2c0.3,0,0.5,0.1,0.8,0.3l3.3,2.2l3.3-2.2
			C181.5,7.3,181.8,7.2,182.1,7.2z"/>
	</g>
	<g class="st1">
		<g>
			<path class="st4" d="M25.5,7.7C25.8,8,26,8.4,26,8.9v14.6c0,1.7-0.4,3.2-1.2,4.5c-0.8,1.4-1.8,2.4-3.2,3.2
				c-1.3,0.8-2.8,1.2-4.5,1.2c-1.6,0-3.1-0.4-4.5-1.2c-1.4-0.8-2.4-1.8-3.2-3.2c-0.8-1.4-1.2-2.9-1.2-4.5s0.4-3.2,1.1-4.5
				c0.7-1.4,1.7-2.4,2.9-3.2s2.6-1.2,4.2-1.2c1.2,0,2.4,0.3,3.5,0.8c1.1,0.5,2,1.2,2.7,2.1V8.9c0-0.5,0.2-0.9,0.5-1.2
				c0.3-0.3,0.7-0.4,1.2-0.4C24.8,7.3,25.2,7.5,25.5,7.7z M20.1,28.8c0.9-0.5,1.5-1.2,2-2.2c0.5-0.9,0.7-1.9,0.7-3.1
				s-0.2-2.1-0.7-3.1c-0.5-0.9-1.2-1.6-2-2.1c-0.9-0.5-1.8-0.8-2.9-0.8c-1.1,0-2,0.3-2.9,0.8c-0.9,0.5-1.5,1.2-2,2.1
				c-0.5,0.9-0.8,1.9-0.8,3.1s0.3,2.2,0.8,3.1c0.5,0.9,1.2,1.6,2,2.2c0.9,0.5,1.8,0.8,2.9,0.8C18.2,29.5,19.2,29.3,20.1,28.8z"/>
			<path class="st4" d="M42.5,15.8c1.3,0.8,2.4,1.8,3.1,3.2c0.8,1.3,1.1,2.9,1.1,4.6c0,1.7-0.4,3.2-1.1,4.6
				c-0.7,1.3-1.8,2.4-3.1,3.2c-1.3,0.8-2.9,1.1-4.6,1.1c-1.7,0-3.2-0.4-4.6-1.1c-1.3-0.8-2.4-1.8-3.1-3.2c-0.7-1.3-1.1-2.9-1.1-4.6
				c0-1.7,0.4-3.3,1.1-4.6c0.7-1.3,1.8-2.4,3.1-3.2c1.3-0.8,2.9-1.1,4.6-1.1C39.7,14.7,41.2,15,42.5,15.8z M35.1,18.3
				c-0.9,0.5-1.5,1.2-2,2.1c-0.5,0.9-0.7,2-0.7,3.1s0.2,2.2,0.7,3.1c0.5,0.9,1.2,1.6,2,2.1c0.9,0.5,1.8,0.8,2.9,0.8s2.1-0.3,2.9-0.8
				c0.9-0.5,1.5-1.2,2-2.1c0.5-0.9,0.7-1.9,0.7-3.1s-0.2-2.2-0.7-3.1c-0.5-0.9-1.2-1.6-2-2.1c-0.9-0.5-1.8-0.8-2.9-0.8
				S35.9,17.8,35.1,18.3z"/>
			<path class="st4" d="M72.9,16.5c1.1,1.2,1.7,2.9,1.7,5.1v9.2c0,0.5-0.1,0.9-0.4,1.2c-0.3,0.3-0.7,0.5-1.2,0.5
				c-0.5,0-0.9-0.2-1.2-0.5c-0.3-0.3-0.5-0.7-0.5-1.2v-9.2c0-1.3-0.3-2.3-1-3c-0.7-0.7-1.5-1-2.6-1c-1.1,0-2,0.4-2.7,1.2
				s-1.1,1.7-1.1,2.9v9c0,0.5-0.1,0.9-0.4,1.2c-0.3,0.3-0.7,0.5-1.2,0.5c-0.5,0-0.9-0.2-1.2-0.5c-0.3-0.3-0.5-0.7-0.5-1.2v-9.2
				c0-1.3-0.3-2.3-1-3s-1.5-1-2.6-1c-1.1,0-2.1,0.4-2.8,1.2s-1.1,1.7-1.1,2.9v9c0,0.5-0.1,0.9-0.4,1.2c-0.3,0.3-0.7,0.5-1.2,0.5
				c-0.5,0-0.9-0.2-1.2-0.5c-0.3-0.3-0.5-0.7-0.5-1.2V16.5c0-0.5,0.2-0.9,0.5-1.2c0.3-0.3,0.7-0.4,1.2-0.4c0.5,0,0.9,0.1,1.2,0.4
				c0.3,0.3,0.5,0.7,0.5,1.1c0.6-0.6,1.2-1,2-1.3c0.8-0.3,1.6-0.5,2.5-0.5c1.1,0,2.1,0.2,2.9,0.7c0.9,0.4,1.6,1.1,2.1,1.9
				c0.6-0.8,1.4-1.4,2.4-1.9c1-0.4,2-0.7,3.2-0.7C70.3,14.6,71.7,15.2,72.9,16.5z"/>
			<path class="st4" d="M81.8,8.3c0.4,0.4,0.6,0.9,0.6,1.5c0,0.6-0.2,1.1-0.6,1.5s-0.9,0.6-1.5,0.6s-1.1-0.2-1.5-0.6
				c-0.4-0.4-0.6-0.9-0.6-1.5c0-0.6,0.2-1.1,0.6-1.5c0.4-0.4,0.9-0.6,1.5-0.6S81.4,7.9,81.8,8.3z M79.1,15.2
				c0.3-0.3,0.7-0.4,1.2-0.4c0.5,0,0.9,0.1,1.2,0.4c0.3,0.3,0.4,0.7,0.4,1.2v14.2c0,0.5-0.1,0.9-0.4,1.2c-0.3,0.3-0.7,0.5-1.2,0.5
				c-0.5,0-0.9-0.2-1.2-0.5c-0.3-0.3-0.5-0.7-0.5-1.2V16.4C78.7,15.9,78.8,15.5,79.1,15.2z"/>
			<path class="st4" d="M99,15.6c1.2,0.6,2.1,1.6,2.8,2.8c0.7,1.2,1,2.7,1,4.4v7.9c0,0.5-0.2,0.9-0.5,1.2c-0.3,0.3-0.7,0.5-1.2,0.5
				c-0.5,0-0.9-0.2-1.2-0.5c-0.3-0.3-0.5-0.7-0.5-1.2v-7.9c0-1.7-0.5-3-1.4-3.9c-0.9-0.9-2.2-1.3-3.7-1.3c-0.9,0-1.7,0.2-2.4,0.5
				c-0.7,0.4-1.3,0.9-1.7,1.5c-0.4,0.6-0.6,1.3-0.6,2.1v9c0,0.5-0.1,0.9-0.4,1.2c-0.3,0.3-0.7,0.5-1.2,0.5c-0.5,0-0.9-0.2-1.2-0.5
				c-0.3-0.3-0.5-0.7-0.5-1.2V16.4c0-0.5,0.2-0.9,0.5-1.2c0.3-0.3,0.7-0.4,1.2-0.4c0.5,0,0.9,0.1,1.2,0.4c0.3,0.3,0.4,0.7,0.4,1.2
				v0.4c0.7-0.7,1.5-1.2,2.4-1.6c0.9-0.4,1.9-0.6,3-0.6C96.5,14.6,97.8,14.9,99,15.6z"/>
			<path class="st4" d="M109.9,8.3c0.4,0.4,0.6,0.9,0.6,1.5c0,0.6-0.2,1.1-0.6,1.5s-0.9,0.6-1.5,0.6s-1.1-0.2-1.5-0.6
				s-0.6-0.9-0.6-1.5c0-0.6,0.2-1.1,0.6-1.5s0.9-0.6,1.5-0.6S109.5,7.9,109.9,8.3z M107.3,15.2c0.3-0.3,0.7-0.4,1.2-0.4
				c0.5,0,0.9,0.1,1.2,0.4c0.3,0.3,0.4,0.7,0.4,1.2v14.2c0,0.5-0.1,0.9-0.4,1.2s-0.7,0.5-1.2,0.5c-0.5,0-0.9-0.2-1.2-0.5
				c-0.3-0.3-0.5-0.7-0.5-1.2V16.4C106.8,15.9,107,15.5,107.3,15.2z"/>
			<path class="st4" d="M128.1,30.9c0,0.5-0.2,0.9-0.6,1.2c-0.3,0.3-0.7,0.4-1,0.4c-0.5,0-0.9-0.2-1.2-0.6l-6.1-7.5l-1.6,1.4v4.9
				c0,0.5-0.1,0.8-0.4,1.1c-0.3,0.3-0.7,0.4-1.1,0.4c-0.5,0-0.8-0.1-1.1-0.4c-0.3-0.3-0.4-0.7-0.4-1.1V8.9c0-0.5,0.1-0.8,0.4-1.1
				c0.3-0.3,0.7-0.4,1.1-0.4c0.5,0,0.8,0.1,1.1,0.4s0.4,0.7,0.4,1.1v13l7.8-6.9c0.3-0.3,0.6-0.4,1-0.4c0.4,0,0.8,0.2,1.1,0.5
				c0.3,0.3,0.4,0.6,0.4,1c0,0.4-0.2,0.8-0.5,1.1l-5.9,5.2l6.2,7.6C128,30.2,128.1,30.6,128.1,30.9z"/>
		</g>
		<g>
			<rect y="7.3" class="st5" width="129.8" height="25.3"/>
			<path class="st5" d="M25.5,7.7C25.8,8,26,8.4,26,8.9v14.6c0,1.7-0.4,3.2-1.2,4.5c-0.8,1.4-1.8,2.4-3.2,3.2
				c-1.3,0.8-2.8,1.2-4.5,1.2c-1.6,0-3.1-0.4-4.5-1.2c-1.4-0.8-2.4-1.8-3.2-3.2c-0.8-1.4-1.2-2.9-1.2-4.5s0.4-3.2,1.1-4.5
				c0.7-1.4,1.7-2.4,2.9-3.2s2.6-1.2,4.2-1.2c1.2,0,2.4,0.3,3.5,0.8c1.1,0.5,2,1.2,2.7,2.1V8.9c0-0.5,0.2-0.9,0.5-1.2
				c0.3-0.3,0.7-0.4,1.2-0.4C24.8,7.3,25.2,7.5,25.5,7.7z M20.1,28.8c0.9-0.5,1.5-1.2,2-2.2c0.5-0.9,0.7-1.9,0.7-3.1
				s-0.2-2.1-0.7-3.1c-0.5-0.9-1.2-1.6-2-2.1c-0.9-0.5-1.8-0.8-2.9-0.8c-1.1,0-2,0.3-2.9,0.8c-0.9,0.5-1.5,1.2-2,2.1
				c-0.5,0.9-0.8,1.9-0.8,3.1s0.3,2.2,0.8,3.1c0.5,0.9,1.2,1.6,2,2.2c0.9,0.5,1.8,0.8,2.9,0.8C18.2,29.5,19.2,29.3,20.1,28.8z"/>
			<path class="st5" d="M42.5,15.8c1.3,0.8,2.4,1.8,3.1,3.2c0.8,1.3,1.1,2.9,1.1,4.6c0,1.7-0.4,3.2-1.1,4.6
				c-0.7,1.3-1.8,2.4-3.1,3.2c-1.3,0.8-2.9,1.1-4.6,1.1c-1.7,0-3.2-0.4-4.6-1.1c-1.3-0.8-2.4-1.8-3.1-3.2c-0.7-1.3-1.1-2.9-1.1-4.6
				c0-1.7,0.4-3.3,1.1-4.6c0.7-1.3,1.8-2.4,3.1-3.2c1.3-0.8,2.9-1.1,4.6-1.1C39.7,14.7,41.2,15,42.5,15.8z M35.1,18.3
				c-0.9,0.5-1.5,1.2-2,2.1c-0.5,0.9-0.7,2-0.7,3.1s0.2,2.2,0.7,3.1c0.5,0.9,1.2,1.6,2,2.1c0.9,0.5,1.8,0.8,2.9,0.8s2.1-0.3,2.9-0.8
				c0.9-0.5,1.5-1.2,2-2.1c0.5-0.9,0.7-1.9,0.7-3.1s-0.2-2.2-0.7-3.1c-0.5-0.9-1.2-1.6-2-2.1c-0.9-0.5-1.8-0.8-2.9-0.8
				S35.9,17.8,35.1,18.3z"/>
			<path class="st5" d="M72.9,16.5c1.1,1.2,1.7,2.9,1.7,5.1v9.2c0,0.5-0.1,0.9-0.4,1.2c-0.3,0.3-0.7,0.5-1.2,0.5
				c-0.5,0-0.9-0.2-1.2-0.5c-0.3-0.3-0.5-0.7-0.5-1.2v-9.2c0-1.3-0.3-2.3-1-3c-0.7-0.7-1.5-1-2.6-1c-1.1,0-2,0.4-2.7,1.2
				s-1.1,1.7-1.1,2.9v9c0,0.5-0.1,0.9-0.4,1.2c-0.3,0.3-0.7,0.5-1.2,0.5c-0.5,0-0.9-0.2-1.2-0.5c-0.3-0.3-0.5-0.7-0.5-1.2v-9.2
				c0-1.3-0.3-2.3-1-3s-1.5-1-2.6-1c-1.1,0-2.1,0.4-2.8,1.2s-1.1,1.7-1.1,2.9v9c0,0.5-0.1,0.9-0.4,1.2c-0.3,0.3-0.7,0.5-1.2,0.5
				c-0.5,0-0.9-0.2-1.2-0.5c-0.3-0.3-0.5-0.7-0.5-1.2V16.5c0-0.5,0.2-0.9,0.5-1.2c0.3-0.3,0.7-0.4,1.2-0.4c0.5,0,0.9,0.1,1.2,0.4
				c0.3,0.3,0.5,0.7,0.5,1.1c0.6-0.6,1.2-1,2-1.3c0.8-0.3,1.6-0.5,2.5-0.5c1.1,0,2.1,0.2,2.9,0.7c0.9,0.4,1.6,1.1,2.1,1.9
				c0.6-0.8,1.4-1.4,2.4-1.9c1-0.4,2-0.7,3.2-0.7C70.3,14.6,71.7,15.2,72.9,16.5z"/>
			<path class="st5" d="M81.8,8.3c0.4,0.4,0.6,0.9,0.6,1.5c0,0.6-0.2,1.1-0.6,1.5s-0.9,0.6-1.5,0.6s-1.1-0.2-1.5-0.6
				c-0.4-0.4-0.6-0.9-0.6-1.5c0-0.6,0.2-1.1,0.6-1.5c0.4-0.4,0.9-0.6,1.5-0.6S81.4,7.9,81.8,8.3z M79.1,15.2
				c0.3-0.3,0.7-0.4,1.2-0.4c0.5,0,0.9,0.1,1.2,0.4c0.3,0.3,0.4,0.7,0.4,1.2v14.2c0,0.5-0.1,0.9-0.4,1.2c-0.3,0.3-0.7,0.5-1.2,0.5
				c-0.5,0-0.9-0.2-1.2-0.5c-0.3-0.3-0.5-0.7-0.5-1.2V16.4C78.7,15.9,78.8,15.5,79.1,15.2z"/>
			<path class="st5" d="M99,15.6c1.2,0.6,2.1,1.6,2.8,2.8c0.7,1.2,1,2.7,1,4.4v7.9c0,0.5-0.2,0.9-0.5,1.2c-0.3,0.3-0.7,0.5-1.2,0.5
				c-0.5,0-0.9-0.2-1.2-0.5c-0.3-0.3-0.5-0.7-0.5-1.2v-7.9c0-1.7-0.5-3-1.4-3.9c-0.9-0.9-2.2-1.3-3.7-1.3c-0.9,0-1.7,0.2-2.4,0.5
				c-0.7,0.4-1.3,0.9-1.7,1.5c-0.4,0.6-0.6,1.3-0.6,2.1v9c0,0.5-0.1,0.9-0.4,1.2c-0.3,0.3-0.7,0.5-1.2,0.5c-0.5,0-0.9-0.2-1.2-0.5
				c-0.3-0.3-0.5-0.7-0.5-1.2V16.4c0-0.5,0.2-0.9,0.5-1.2c0.3-0.3,0.7-0.4,1.2-0.4c0.5,0,0.9,0.1,1.2,0.4c0.3,0.3,0.4,0.7,0.4,1.2
				v0.4c0.7-0.7,1.5-1.2,2.4-1.6c0.9-0.4,1.9-0.6,3-0.6C96.5,14.6,97.8,14.9,99,15.6z"/>
			<path class="st5" d="M109.9,8.3c0.4,0.4,0.6,0.9,0.6,1.5c0,0.6-0.2,1.1-0.6,1.5s-0.9,0.6-1.5,0.6s-1.1-0.2-1.5-0.6
				s-0.6-0.9-0.6-1.5c0-0.6,0.2-1.1,0.6-1.5s0.9-0.6,1.5-0.6S109.5,7.9,109.9,8.3z M107.3,15.2c0.3-0.3,0.7-0.4,1.2-0.4
				c0.5,0,0.9,0.1,1.2,0.4c0.3,0.3,0.4,0.7,0.4,1.2v14.2c0,0.5-0.1,0.9-0.4,1.2s-0.7,0.5-1.2,0.5c-0.5,0-0.9-0.2-1.2-0.5
				c-0.3-0.3-0.5-0.7-0.5-1.2V16.4C106.8,15.9,107,15.5,107.3,15.2z"/>
			<path class="st5" d="M128.1,30.9c0,0.5-0.2,0.9-0.6,1.2c-0.3,0.3-0.7,0.4-1,0.4c-0.5,0-0.9-0.2-1.2-0.6l-6.1-7.5l-1.6,1.4v4.9
				c0,0.5-0.1,0.8-0.4,1.1c-0.3,0.3-0.7,0.4-1.1,0.4c-0.5,0-0.8-0.1-1.1-0.4c-0.3-0.3-0.4-0.7-0.4-1.1V8.9c0-0.5,0.1-0.8,0.4-1.1
				c0.3-0.3,0.7-0.4,1.1-0.4c0.5,0,0.8,0.1,1.1,0.4s0.4,0.7,0.4,1.1v13l7.8-6.9c0.3-0.3,0.6-0.4,1-0.4c0.4,0,0.8,0.2,1.1,0.5
				c0.3,0.3,0.4,0.6,0.4,1c0,0.4-0.2,0.8-0.5,1.1l-5.9,5.2l6.2,7.6C128,30.2,128.1,30.6,128.1,30.9z"/>
		</g>
	</g>
</g>
<g id="Layer_3">
	<g>
		<rect x="129.8" y="7.3" class="st3" width="60.2" height="25.3"/>
		<path class="st4" d="M137.2,10.6c-0.7,1-1.1,2.4-1.1,4.2v0.7h4.2c0.3,0,0.5,0.1,0.6,0.2c0.2,0.2,0.2,0.4,0.2,0.6s-0.1,0.5-0.2,0.6
			c-0.2,0.2-0.4,0.2-0.6,0.2h-4.2v14.2c0,0.3-0.1,0.5-0.3,0.7c-0.2,0.2-0.4,0.3-0.7,0.3c-0.3,0-0.5-0.1-0.7-0.3
			c-0.2-0.2-0.3-0.4-0.3-0.7V17.2h-2.5c-0.3,0-0.5-0.1-0.6-0.2c-0.2-0.2-0.2-0.4-0.2-0.6s0.1-0.5,0.2-0.6c0.2-0.2,0.4-0.2,0.6-0.2
			h2.5v-0.7c0-2.3,0.5-4.1,1.6-5.4c1.1-1.3,2.7-2,4.8-2c0.3,0,0.5,0.1,0.7,0.2c0.2,0.2,0.3,0.4,0.3,0.6s-0.1,0.5-0.3,0.6
			c-0.2,0.2-0.4,0.2-0.7,0.2C139,9,137.9,9.5,137.2,10.6z"/>
		<path class="st4" d="M152.6,15.7c0,0.1,0,0.2,0,0.3c-0.1,0.2-0.2,0.4-0.3,0.5c-0.1,0.1-0.3,0.1-0.6,0.1c-0.2,0-0.4,0-0.8-0.1
			c-0.3,0-0.6-0.1-0.8-0.1c-1.1,0-2,0.2-2.8,0.7c-0.8,0.4-1.5,1.1-2,1.9c-0.5,0.8-0.7,1.7-0.7,2.7v9.7c0,0.3-0.1,0.5-0.3,0.7
			s-0.4,0.3-0.7,0.3c-0.3,0-0.5-0.1-0.7-0.3c-0.2-0.2-0.3-0.4-0.3-0.7V15.7c0-0.3,0.1-0.5,0.3-0.7c0.2-0.2,0.4-0.3,0.7-0.3
			c0.3,0,0.5,0.1,0.7,0.3c0.2,0.2,0.3,0.4,0.3,0.7v2c0.6-1,1.4-1.7,2.4-2.3s2-0.8,3.1-0.8C151.8,14.6,152.6,14.9,152.6,15.7z"/>
		<path class="st4" d="M169.7,15.6c0,0.1,0,0.2-0.1,0.4l-10.8,23.3c-0.2,0.4-0.4,0.6-0.7,0.6c-0.1,0-0.3,0-0.4-0.1
			c-0.4-0.2-0.6-0.4-0.6-0.7c0-0.1,0-0.2,0.1-0.4l3.2-6.9c0,0-0.1-0.1-0.1-0.2l-7-15.4c-0.1-0.2-0.1-0.3-0.1-0.5
			c0-0.3,0.2-0.6,0.5-0.7c0.2-0.1,0.3-0.1,0.5-0.1c0.3,0,0.6,0.2,0.7,0.5l6.5,14.2l6.5-14.2c0.2-0.4,0.4-0.6,0.7-0.6
			c0.1,0,0.3,0,0.4,0.1C169.5,15,169.7,15.2,169.7,15.6z"/>
		<path class="st4" d="M181.7,15.4c1.1,0.5,2.1,1.3,2.9,2.4c0.1,0.2,0.2,0.4,0.2,0.5c0,0.3-0.1,0.5-0.4,0.7
			c-0.1,0.1-0.3,0.2-0.5,0.2c-0.3,0-0.5-0.1-0.7-0.4c-1.4-1.6-3.1-2.4-5.2-2.4c-1.2,0-2.3,0.3-3.3,0.9s-1.7,1.5-2.2,2.5
			c-0.5,1.1-0.8,2.3-0.8,3.7c0,1.3,0.3,2.6,0.9,3.6c0.6,1.1,1.4,1.9,2.4,2.6c1,0.6,2.2,0.9,3.5,0.9c1.9,0,3.4-0.5,4.5-1.6
			c0.2-0.2,0.4-0.3,0.7-0.3c0.2,0,0.4,0.1,0.6,0.2c0.2,0.2,0.3,0.4,0.3,0.7c0,0.2-0.1,0.4-0.3,0.6c-0.7,0.7-1.6,1.2-2.6,1.6
			c-1,0.4-2.1,0.6-3.2,0.6c-1.6,0-3.1-0.4-4.4-1.2c-1.3-0.8-2.4-1.8-3.1-3.2c-0.8-1.4-1.1-2.9-1.1-4.5c0-1.7,0.4-3.2,1.1-4.6
			c0.7-1.4,1.7-2.4,2.9-3.2c1.3-0.8,2.7-1.2,4.2-1.2C179.3,14.6,180.6,14.9,181.7,15.4z M182.1,7.2c0.2,0,0.4,0.1,0.6,0.2
			c0.1,0.2,0.2,0.4,0.2,0.6c0,0.3-0.2,0.6-0.5,0.9l-3.9,2.6c-0.1,0.1-0.3,0.1-0.5,0.1c-0.2,0-0.4,0-0.5-0.1l-3.9-2.6
			c-0.3-0.2-0.5-0.5-0.5-0.9c0-0.3,0.1-0.5,0.2-0.6c0.2-0.2,0.4-0.2,0.6-0.2c0.3,0,0.5,0.1,0.8,0.3l3.3,2.2l3.3-2.2
			C181.5,7.3,181.8,7.2,182.1,7.2z"/>
	</g>
	<g>
		<g>
			<path class="st4" d="M25.5,7.7C25.8,8,26,8.4,26,8.9v14.6c0,1.7-0.4,3.2-1.2,4.5c-0.8,1.4-1.8,2.4-3.2,3.2
				c-1.3,0.8-2.8,1.2-4.5,1.2c-1.6,0-3.1-0.4-4.5-1.2c-1.4-0.8-2.4-1.8-3.2-3.2c-0.8-1.4-1.2-2.9-1.2-4.5s0.4-3.2,1.1-4.5
				c0.7-1.4,1.7-2.4,2.9-3.2s2.6-1.2,4.2-1.2c1.2,0,2.4,0.3,3.5,0.8c1.1,0.5,2,1.2,2.7,2.1V8.9c0-0.5,0.2-0.9,0.5-1.2
				c0.3-0.3,0.7-0.4,1.2-0.4C24.8,7.3,25.2,7.5,25.5,7.7z M20.1,28.8c0.9-0.5,1.5-1.2,2-2.2c0.5-0.9,0.7-1.9,0.7-3.1
				s-0.2-2.1-0.7-3.1c-0.5-0.9-1.2-1.6-2-2.1c-0.9-0.5-1.8-0.8-2.9-0.8c-1.1,0-2,0.3-2.9,0.8c-0.9,0.5-1.5,1.2-2,2.1
				c-0.5,0.9-0.8,1.9-0.8,3.1s0.3,2.2,0.8,3.1c0.5,0.9,1.2,1.6,2,2.2c0.9,0.5,1.8,0.8,2.9,0.8C18.2,29.5,19.2,29.3,20.1,28.8z"/>
			<path class="st4" d="M42.5,15.8c1.3,0.8,2.4,1.8,3.1,3.2c0.8,1.3,1.1,2.9,1.1,4.6c0,1.7-0.4,3.2-1.1,4.6
				c-0.7,1.3-1.8,2.4-3.1,3.2c-1.3,0.8-2.9,1.1-4.6,1.1c-1.7,0-3.2-0.4-4.6-1.1c-1.3-0.8-2.4-1.8-3.1-3.2c-0.7-1.3-1.1-2.9-1.1-4.6
				c0-1.7,0.4-3.3,1.1-4.6c0.7-1.3,1.8-2.4,3.1-3.2c1.3-0.8,2.9-1.1,4.6-1.1C39.7,14.7,41.2,15,42.5,15.8z M35.1,18.3
				c-0.9,0.5-1.5,1.2-2,2.1c-0.5,0.9-0.7,2-0.7,3.1s0.2,2.2,0.7,3.1c0.5,0.9,1.2,1.6,2,2.1c0.9,0.5,1.8,0.8,2.9,0.8s2.1-0.3,2.9-0.8
				c0.9-0.5,1.5-1.2,2-2.1c0.5-0.9,0.7-1.9,0.7-3.1s-0.2-2.2-0.7-3.1c-0.5-0.9-1.2-1.6-2-2.1c-0.9-0.5-1.8-0.8-2.9-0.8
				S35.9,17.8,35.1,18.3z"/>
			<path class="st4" d="M72.9,16.5c1.1,1.2,1.7,2.9,1.7,5.1v9.2c0,0.5-0.1,0.9-0.4,1.2c-0.3,0.3-0.7,0.5-1.2,0.5
				c-0.5,0-0.9-0.2-1.2-0.5c-0.3-0.3-0.5-0.7-0.5-1.2v-9.2c0-1.3-0.3-2.3-1-3c-0.7-0.7-1.5-1-2.6-1c-1.1,0-2,0.4-2.7,1.2
				s-1.1,1.7-1.1,2.9v9c0,0.5-0.1,0.9-0.4,1.2c-0.3,0.3-0.7,0.5-1.2,0.5c-0.5,0-0.9-0.2-1.2-0.5c-0.3-0.3-0.5-0.7-0.5-1.2v-9.2
				c0-1.3-0.3-2.3-1-3s-1.5-1-2.6-1c-1.1,0-2.1,0.4-2.8,1.2s-1.1,1.7-1.1,2.9v9c0,0.5-0.1,0.9-0.4,1.2c-0.3,0.3-0.7,0.5-1.2,0.5
				c-0.5,0-0.9-0.2-1.2-0.5c-0.3-0.3-0.5-0.7-0.5-1.2V16.5c0-0.5,0.2-0.9,0.5-1.2c0.3-0.3,0.7-0.4,1.2-0.4c0.5,0,0.9,0.1,1.2,0.4
				c0.3,0.3,0.5,0.7,0.5,1.1c0.6-0.6,1.2-1,2-1.3c0.8-0.3,1.6-0.5,2.5-0.5c1.1,0,2.1,0.2,2.9,0.7c0.9,0.4,1.6,1.1,2.1,1.9
				c0.6-0.8,1.4-1.4,2.4-1.9c1-0.4,2-0.7,3.2-0.7C70.3,14.6,71.7,15.2,72.9,16.5z"/>
			<path class="st4" d="M81.8,8.3c0.4,0.4,0.6,0.9,0.6,1.5c0,0.6-0.2,1.1-0.6,1.5s-0.9,0.6-1.5,0.6s-1.1-0.2-1.5-0.6
				c-0.4-0.4-0.6-0.9-0.6-1.5c0-0.6,0.2-1.1,0.6-1.5c0.4-0.4,0.9-0.6,1.5-0.6S81.4,7.9,81.8,8.3z M79.1,15.2
				c0.3-0.3,0.7-0.4,1.2-0.4c0.5,0,0.9,0.1,1.2,0.4c0.3,0.3,0.4,0.7,0.4,1.2v14.2c0,0.5-0.1,0.9-0.4,1.2c-0.3,0.3-0.7,0.5-1.2,0.5
				c-0.5,0-0.9-0.2-1.2-0.5c-0.3-0.3-0.5-0.7-0.5-1.2V16.4C78.7,15.9,78.8,15.5,79.1,15.2z"/>
			<path class="st4" d="M99,15.6c1.2,0.6,2.1,1.6,2.8,2.8c0.7,1.2,1,2.7,1,4.4v7.9c0,0.5-0.2,0.9-0.5,1.2c-0.3,0.3-0.7,0.5-1.2,0.5
				c-0.5,0-0.9-0.2-1.2-0.5c-0.3-0.3-0.5-0.7-0.5-1.2v-7.9c0-1.7-0.5-3-1.4-3.9c-0.9-0.9-2.2-1.3-3.7-1.3c-0.9,0-1.7,0.2-2.4,0.5
				c-0.7,0.4-1.3,0.9-1.7,1.5c-0.4,0.6-0.6,1.3-0.6,2.1v9c0,0.5-0.1,0.9-0.4,1.2c-0.3,0.3-0.7,0.5-1.2,0.5c-0.5,0-0.9-0.2-1.2-0.5
				c-0.3-0.3-0.5-0.7-0.5-1.2V16.4c0-0.5,0.2-0.9,0.5-1.2c0.3-0.3,0.7-0.4,1.2-0.4c0.5,0,0.9,0.1,1.2,0.4c0.3,0.3,0.4,0.7,0.4,1.2
				v0.4c0.7-0.7,1.5-1.2,2.4-1.6c0.9-0.4,1.9-0.6,3-0.6C96.5,14.6,97.8,14.9,99,15.6z"/>
			<path class="st4" d="M109.9,8.3c0.4,0.4,0.6,0.9,0.6,1.5c0,0.6-0.2,1.1-0.6,1.5s-0.9,0.6-1.5,0.6s-1.1-0.2-1.5-0.6
				s-0.6-0.9-0.6-1.5c0-0.6,0.2-1.1,0.6-1.5s0.9-0.6,1.5-0.6S109.5,7.9,109.9,8.3z M107.3,15.2c0.3-0.3,0.7-0.4,1.2-0.4
				c0.5,0,0.9,0.1,1.2,0.4c0.3,0.3,0.4,0.7,0.4,1.2v14.2c0,0.5-0.1,0.9-0.4,1.2s-0.7,0.5-1.2,0.5c-0.5,0-0.9-0.2-1.2-0.5
				c-0.3-0.3-0.5-0.7-0.5-1.2V16.4C106.8,15.9,107,15.5,107.3,15.2z"/>
			<path class="st4" d="M128.1,30.9c0,0.5-0.2,0.9-0.6,1.2c-0.3,0.3-0.7,0.4-1,0.4c-0.5,0-0.9-0.2-1.2-0.6l-6.1-7.5l-1.6,1.4v4.9
				c0,0.5-0.1,0.8-0.4,1.1c-0.3,0.3-0.7,0.4-1.1,0.4c-0.5,0-0.8-0.1-1.1-0.4c-0.3-0.3-0.4-0.7-0.4-1.1V8.9c0-0.5,0.1-0.8,0.4-1.1
				c0.3-0.3,0.7-0.4,1.1-0.4c0.5,0,0.8,0.1,1.1,0.4s0.4,0.7,0.4,1.1v13l7.8-6.9c0.3-0.3,0.6-0.4,1-0.4c0.4,0,0.8,0.2,1.1,0.5
				c0.3,0.3,0.4,0.6,0.4,1c0,0.4-0.2,0.8-0.5,1.1l-5.9,5.2l6.2,7.6C128,30.2,128.1,30.6,128.1,30.9z"/>
		</g>
	</g>
	<g>
	</g>
	<g>
	</g>
	<g>
	</g>
	<g>
	</g>
	<g>
	</g>
</g>
</svg>
