<svg version="1.0" xmlns="http://www.w3.org/2000/svg" width="512px" height="512px" viewBox="0 0 5120 5120" preserveAspectRatio="xMidYMid meet">
<g id="layer101" fill="#010101" stroke="none">
 <path fill="#fff" d="M2395 5010 c-593 -40 -1151 -295 -1575 -720 -58 -58 -136 -144 -174 -192 -53 -67 -83 -95 -134 -125 -99 -57 -202 -163 -247 -252 -252 -503 -329 -1140 -209 -1716 36 -172 123 -427 198 -580 56 -115 72 -139 126 -188 34 -31 95 -73 135 -94 60 -32 83 -51 136 -118 265 -335 659 -620 1063 -770 140 -52 378 -110 531 -130 172 -23 457 -23 630 0 155 20 391 78 530 130 225 83 490 233 680 385 115 92 254 229 356 351 75 90 99 111 153 138 35 17 96 61 136 98 65 60 78 79 136 198 163 335 254 740 254 1135 0 405 -95 822 -265 1161 -46 91 -170 218 -260 266 -46 25 -74 49 -120 109 -81 105 -260 284 -375 376 -483 386 -1095 579 -1705 538z m246 -335 c98 -34 207 -148 303 -320 25 -45 46 -84 46 -86 0 -2 -193 -4 -430 -4 -236 0 -430 2 -430 4 0 2 21 41 46 86 150 267 305 374 465 320z m-709 -102 c-34 -50 -91 -160 -128 -245 -19 -45 -39 -87 -43 -91 -4 -4 -77 -17 -162 -28 -85 -11 -221 -31 -303 -45 -82 -13 -152 -24 -156 -22 -24 9 259 214 405 292 117 64 361 165 398 166 5 0 0 -12 -11 -27z m1330 -1 c167 -57 330 -139 482 -240 88 -59 247 -184 241 -190 -2 -2 -72 8 -157 22 -84 14 -223 35 -308 46 -85 11 -157 24 -161 28 -4 4 -23 45 -44 92 -40 90 -96 197 -127 243 -11 15 -17 27 -14 27 2 0 42 -13 88 -28z m1117 -1145 c41 -15 98 -42 126 -62 51 -35 52 -37 85 -143 158 -514 130 -1043 -83 -1545 -27 -66 -61 -129 -74 -141 -49 -42 -683 -166 -1078 -210 -490 -55 -1088 -55 -1585 0 -375 41 -1012 163 -1071 204 -33 24 -105 178 -158 337 -118 353 -142 744 -71 1117 23 116 43 143 144 197 49 26 75 33 137 37 166 10 332 -79 568 -303 99 -94 362 -387 472 -527 99 -125 126 -146 168 -128 18 7 112 123 282 348 275 365 309 405 332 396 8 -3 80 -78 158 -167 205 -232 200 -227 247 -227 45 0 27 -16 262 238 279 302 572 528 769 594 85 28 269 20 370 -15z m-3103 -2467 c66 -11 201 -30 302 -43 l183 -23 43 -99 c43 -100 93 -195 129 -249 l20 -28 -24 7 c-172 50 -376 148 -551 264 -128 86 -255 190 -232 191 6 0 65 -9 130 -20z m2667 -22 c-177 -154 -422 -297 -643 -376 -142 -51 -134 -52 -94 15 39 64 114 217 135 275 11 33 17 38 53 43 148 19 413 57 476 69 125 23 128 22 73 -26z m-996 -163 c-111 -214 -258 -345 -387 -345 -129 0 -276 131 -387 345 l-41 80 428 0 428 0 -41 -80z"/>
 <path fill="#fff" d="M4095 2288 c-88 -33 -188 -138 -226 -238 -45 -117 -21 -258 52 -311 51 -36 141 -39 212 -6 134 61 226 223 215 377 -6 75 -31 135 -68 162 -31 23 -142 32 -185 16z"/>
 </g>
</svg>